<mxfile host="app.diagrams.net" modified="2024-06-10T19:55:13.087Z" agent="Mozilla/5.0 (Windows NT 10.0; Win64; x64) AppleWebKit/537.36 (KHTML, like Gecko) Chrome/125.0.0.0 Safari/537.36" etag="CSNuFEZPaRnaqw9olM_o" version="24.5.2" type="github">
  <diagram name="PÃ¡gina-1" id="3T-tP-M6iSefr816gT0-">
    <mxGraphModel dx="880" dy="468" grid="1" gridSize="10" guides="1" tooltips="1" connect="1" arrows="1" fold="1" page="1" pageScale="1" pageWidth="827" pageHeight="1169" math="0" shadow="0">
      <root>
        <mxCell id="0" />
        <mxCell id="1" parent="0" />
        <mxCell id="AWLAwh1SG4JhbrPI-Lpt-1" value="Aparelho Telefonico" style="swimlane;fontStyle=1;align=center;verticalAlign=top;childLayout=stackLayout;horizontal=1;startSize=26;horizontalStack=0;resizeParent=1;resizeParentMax=0;resizeLast=0;collapsible=1;marginBottom=0;whiteSpace=wrap;html=1;" vertex="1" parent="1">
          <mxGeometry x="334" y="164" width="160" height="90" as="geometry" />
        </mxCell>
        <mxCell id="AWLAwh1SG4JhbrPI-Lpt-3" value="" style="line;strokeWidth=1;fillColor=none;align=left;verticalAlign=middle;spacingTop=-1;spacingLeft=3;spacingRight=3;rotatable=0;labelPosition=right;points=[];portConstraint=eastwest;strokeColor=inherit;" vertex="1" parent="AWLAwh1SG4JhbrPI-Lpt-1">
          <mxGeometry y="26" width="160" height="8" as="geometry" />
        </mxCell>
        <mxCell id="AWLAwh1SG4JhbrPI-Lpt-4" value="- ligar(string): Void&lt;div&gt;- atender(): Void&lt;div&gt;- correioVoz(): Void&lt;div&gt;&lt;br&gt;&lt;/div&gt;&lt;/div&gt;&lt;/div&gt;" style="text;strokeColor=none;fillColor=none;align=left;verticalAlign=top;spacingLeft=4;spacingRight=4;overflow=hidden;rotatable=0;points=[[0,0.5],[1,0.5]];portConstraint=eastwest;whiteSpace=wrap;html=1;" vertex="1" parent="AWLAwh1SG4JhbrPI-Lpt-1">
          <mxGeometry y="34" width="160" height="56" as="geometry" />
        </mxCell>
        <mxCell id="AWLAwh1SG4JhbrPI-Lpt-5" value="Navegador" style="swimlane;fontStyle=1;align=center;verticalAlign=top;childLayout=stackLayout;horizontal=1;startSize=26;horizontalStack=0;resizeParent=1;resizeParentMax=0;resizeLast=0;collapsible=1;marginBottom=0;whiteSpace=wrap;html=1;" vertex="1" parent="1">
          <mxGeometry x="70" y="110" width="160" height="90" as="geometry" />
        </mxCell>
        <mxCell id="AWLAwh1SG4JhbrPI-Lpt-7" value="" style="line;strokeWidth=1;fillColor=none;align=left;verticalAlign=middle;spacingTop=-1;spacingLeft=3;spacingRight=3;rotatable=0;labelPosition=right;points=[];portConstraint=eastwest;strokeColor=inherit;" vertex="1" parent="AWLAwh1SG4JhbrPI-Lpt-5">
          <mxGeometry y="26" width="160" height="8" as="geometry" />
        </mxCell>
        <mxCell id="AWLAwh1SG4JhbrPI-Lpt-8" value="&lt;div&gt;&lt;span style=&quot;background-color: initial;&quot;&gt;- exibirPagina(String): Void&lt;/span&gt;&lt;br&gt;&lt;/div&gt;&lt;div style=&quot;forced-color-adjust: none;&quot;&gt;- adicionarNovaAba(): Void&lt;div style=&quot;forced-color-adjust: none;&quot;&gt;- atualizarPagina(): Void&lt;div style=&quot;forced-color-adjust: none;&quot;&gt;&lt;br&gt;&lt;/div&gt;&lt;/div&gt;&lt;/div&gt;" style="text;strokeColor=none;fillColor=none;align=left;verticalAlign=top;spacingLeft=4;spacingRight=4;overflow=hidden;rotatable=0;points=[[0,0.5],[1,0.5]];portConstraint=eastwest;whiteSpace=wrap;html=1;" vertex="1" parent="AWLAwh1SG4JhbrPI-Lpt-5">
          <mxGeometry y="34" width="160" height="56" as="geometry" />
        </mxCell>
        <mxCell id="AWLAwh1SG4JhbrPI-Lpt-9" value="ReprodutorMusical&lt;div&gt;&lt;br&gt;&lt;/div&gt;" style="swimlane;fontStyle=1;align=center;verticalAlign=top;childLayout=stackLayout;horizontal=1;startSize=26;horizontalStack=0;resizeParent=1;resizeParentMax=0;resizeLast=0;collapsible=1;marginBottom=0;whiteSpace=wrap;html=1;" vertex="1" parent="1">
          <mxGeometry x="590" y="110" width="180" height="94" as="geometry" />
        </mxCell>
        <mxCell id="AWLAwh1SG4JhbrPI-Lpt-11" value="" style="line;strokeWidth=1;fillColor=none;align=left;verticalAlign=middle;spacingTop=-1;spacingLeft=3;spacingRight=3;rotatable=0;labelPosition=right;points=[];portConstraint=eastwest;strokeColor=inherit;" vertex="1" parent="AWLAwh1SG4JhbrPI-Lpt-9">
          <mxGeometry y="26" width="180" height="8" as="geometry" />
        </mxCell>
        <mxCell id="AWLAwh1SG4JhbrPI-Lpt-12" value="- tocar(&lt;span style=&quot;background-color: initial;&quot;&gt;): Void&lt;/span&gt;&lt;div&gt;- pausar(&lt;span style=&quot;background-color: initial;&quot;&gt;): Void&lt;/span&gt;&lt;/div&gt;&lt;div&gt;- selecionarMusica(String&lt;span style=&quot;background-color: initial;&quot;&gt;): Void&lt;/span&gt;&lt;/div&gt;&lt;div&gt;&lt;div&gt;&lt;span style=&quot;background-color: initial;&quot;&gt;&lt;br&gt;&lt;/span&gt;&lt;/div&gt;&lt;/div&gt;" style="text;strokeColor=none;fillColor=none;align=left;verticalAlign=top;spacingLeft=4;spacingRight=4;overflow=hidden;rotatable=0;points=[[0,0.5],[1,0.5]];portConstraint=eastwest;whiteSpace=wrap;html=1;" vertex="1" parent="AWLAwh1SG4JhbrPI-Lpt-9">
          <mxGeometry y="34" width="180" height="60" as="geometry" />
        </mxCell>
        <mxCell id="AWLAwh1SG4JhbrPI-Lpt-19" style="edgeStyle=orthogonalEdgeStyle;rounded=0;orthogonalLoop=1;jettySize=auto;html=1;" edge="1" parent="1" source="AWLAwh1SG4JhbrPI-Lpt-13" target="AWLAwh1SG4JhbrPI-Lpt-5">
          <mxGeometry relative="1" as="geometry" />
        </mxCell>
        <mxCell id="AWLAwh1SG4JhbrPI-Lpt-20" style="edgeStyle=orthogonalEdgeStyle;rounded=0;orthogonalLoop=1;jettySize=auto;html=1;" edge="1" parent="1" source="AWLAwh1SG4JhbrPI-Lpt-13" target="AWLAwh1SG4JhbrPI-Lpt-1">
          <mxGeometry relative="1" as="geometry" />
        </mxCell>
        <mxCell id="AWLAwh1SG4JhbrPI-Lpt-22" value="" style="edgeStyle=orthogonalEdgeStyle;rounded=0;orthogonalLoop=1;jettySize=auto;html=1;entryX=0.5;entryY=0;entryDx=0;entryDy=0;" edge="1" parent="1" source="AWLAwh1SG4JhbrPI-Lpt-13" target="AWLAwh1SG4JhbrPI-Lpt-9">
          <mxGeometry relative="1" as="geometry">
            <mxPoint x="614" y="47" as="targetPoint" />
          </mxGeometry>
        </mxCell>
        <mxCell id="AWLAwh1SG4JhbrPI-Lpt-13" value="Iphone" style="swimlane;fontStyle=1;align=center;verticalAlign=top;childLayout=stackLayout;horizontal=1;startSize=26;horizontalStack=0;resizeParent=1;resizeParentMax=0;resizeLast=0;collapsible=1;marginBottom=0;whiteSpace=wrap;html=1;" vertex="1" parent="1">
          <mxGeometry x="334" y="30" width="160" height="34" as="geometry" />
        </mxCell>
        <mxCell id="AWLAwh1SG4JhbrPI-Lpt-15" value="" style="line;strokeWidth=1;fillColor=none;align=left;verticalAlign=middle;spacingTop=-1;spacingLeft=3;spacingRight=3;rotatable=0;labelPosition=right;points=[];portConstraint=eastwest;strokeColor=inherit;" vertex="1" parent="AWLAwh1SG4JhbrPI-Lpt-13">
          <mxGeometry y="26" width="160" height="8" as="geometry" />
        </mxCell>
      </root>
    </mxGraphModel>
  </diagram>
</mxfile>
